<svg xmlns="http://www.w3.org/2000/svg" viewBox="0 0 1480 720" width="1480" height="720" style="font-family: Inter, -apple-system, system-ui, sans-serif;">
<defs><filter id="card-shadow" x="-5%" y="-5%" width="110%" height="115%"><feDropShadow dx="0" dy="2" stdDeviation="6" flood-color="#0F1B2A" flood-opacity="0.08"/></filter><linearGradient id="bg" x1="0" y1="0" x2="0" y2="1"><stop offset="0" stop-color="#FAFBFC"/><stop offset="1" stop-color="#F1F4F8"/></linearGradient></defs>
<rect x="0" y="0" width="1480" height="720" fill="url(#bg)"/>
<rect x="36" y="40" rx="14" ry="14" width="60" height="60" fill="#0F8E8B"/><text x="66.0" y="79.0" text-anchor="middle" font-family="Inter, -apple-system, system-ui, sans-serif" font-size="24" font-weight="900" fill="#FFFFFF">GM</text><text x="114" y="68" font-family="Inter, -apple-system, system-ui, sans-serif" font-size="28" font-weight="800" fill="#0F1B2A" text-anchor="start">From methane gold to map layers</text><text x="114" y="94" font-family="Inter, -apple-system, system-ui, sans-serif" font-size="14" font-weight="400" fill="#3F4D5E" text-anchor="start">vapor-eyes gold tables → map-ready views → the four shipped layers</text><rect x="1282" y="48" rx="13" ry="13" width="162" height="26" fill="#0F1B2A"/><text x="1363.0" y="66" text-anchor="middle" font-family="Inter, -apple-system, system-ui, sans-serif" font-size="12" font-weight="700" fill="#FFFFFF">Genie Map  ·  Lineage</text>
<text x="56" y="190" font-family="Inter, -apple-system, system-ui, sans-serif" font-size="11" font-weight="700" fill="#7A8794" text-anchor="start" letter-spacing="1.4">VAPOR-EYES GOLD</text><text x="570" y="190" font-family="Inter, -apple-system, system-ui, sans-serif" font-size="11" font-weight="700" fill="#7A8794" text-anchor="start" letter-spacing="1.4">MAP-READY VIEWS</text><text x="1126" y="190" font-family="Inter, -apple-system, system-ui, sans-serif" font-size="11" font-weight="700" fill="#7A8794" text-anchor="start" letter-spacing="1.4">MAP LAYERS</text><rect x="52" y="206" rx="12" ry="12" width="300" height="96" fill="#FFFFFF" stroke="#E5E7EB" stroke-width="1" filter="url(#card-shadow)"/><path d="M 52 218 A 12 12 0 0 1 64 206 H 340 A 12 12 0 0 1 352 218 V 211 H 52 Z" fill="#0F8E8B"/><text x="202.0" y="230" font-family="Inter, -apple-system, system-ui, sans-serif" font-size="14" font-weight="800" fill="#0F1B2A" text-anchor="middle">Hotspot cells</text><text x="202.0" y="252" text-anchor="middle" font-family="Inter, sans-serif" font-size="11.5" fill="#3F4D5E">Per-cell CH₄ max from the wide-area TROPOMI</text><text x="202.0" y="268" text-anchor="middle" font-family="Inter, sans-serif" font-size="11.5" fill="#3F4D5E">/ EMIT screen</text><rect x="52" y="330" rx="12" ry="12" width="300" height="96" fill="#FFFFFF" stroke="#E5E7EB" stroke-width="1" filter="url(#card-shadow)"/><path d="M 52 342 A 12 12 0 0 1 64 330 H 340 A 12 12 0 0 1 352 342 V 335 H 52 Z" fill="#0F8E8B"/><text x="202.0" y="354" font-family="Inter, -apple-system, system-ui, sans-serif" font-size="14" font-weight="800" fill="#0F1B2A" text-anchor="middle">Plume complexes</text><text x="202.0" y="376" text-anchor="middle" font-family="Inter, sans-serif" font-size="11.5" fill="#3F4D5E">EMIT plume outlines with JPL emission-rate</text><text x="202.0" y="392" text-anchor="middle" font-family="Inter, sans-serif" font-size="11.5" fill="#3F4D5E">and concentration</text><rect x="52" y="454" rx="12" ry="12" width="300" height="96" fill="#FFFFFF" stroke="#E5E7EB" stroke-width="1" filter="url(#card-shadow)"/><path d="M 52 466 A 12 12 0 0 1 64 454 H 340 A 12 12 0 0 1 352 466 V 459 H 52 Z" fill="#0F8E8B"/><text x="202.0" y="478" font-family="Inter, -apple-system, system-ui, sans-serif" font-size="14" font-weight="800" fill="#0F1B2A" text-anchor="middle">Well inventory + reference</text><text x="202.0" y="500" text-anchor="middle" font-family="Inter, sans-serif" font-size="11.5" fill="#3F4D5E">Well history (as-of-now), shale plays,</text><text x="202.0" y="516" text-anchor="middle" font-family="Inter, sans-serif" font-size="11.5" fill="#3F4D5E">county / state boundaries</text><rect x="566" y="206" rx="12" ry="12" width="340" height="116" fill="#FFFFFF" stroke="#E5E7EB" stroke-width="1" filter="url(#card-shadow)"/><path d="M 566 218 A 12 12 0 0 1 578 206 H 894 A 12 12 0 0 1 906 218 V 211 H 566 Z" fill="#E04E2A"/><text x="736.0" y="230" font-family="Inter, -apple-system, system-ui, sans-serif" font-size="16" font-weight="800" fill="#0F1B2A" text-anchor="middle">wells_enriched_latest</text><g transform="translate(685.5, 242)"><rect x="0" y="0" rx="11" ry="11" width="101" height="22" fill="#FCE9E2"/><text x="50.5" y="15.0" text-anchor="middle" font-family="ui-monospace, SFMono-Regular, Menlo, Consolas, monospace" font-size="12" font-weight="700" fill="#E04E2A">new gold MV</text></g><text x="736.0" y="284" text-anchor="middle" font-family="Inter, sans-serif" font-size="11.5" fill="#3F4D5E">One row per well: play + county tagged, map-ready</text><text x="736.0" y="300" text-anchor="middle" font-family="Inter, sans-serif" font-size="11.5" fill="#3F4D5E">point, SRID 4326</text><rect x="566" y="346" rx="12" ry="12" width="340" height="84" fill="#FFFFFF" stroke="#E5E7EB" stroke-width="1" filter="url(#card-shadow)"/><path d="M 566 358 A 12 12 0 0 1 578 346 H 894 A 12 12 0 0 1 906 358 V 351 H 566 Z" fill="#0F8E8B"/><text x="736.0" y="370" font-family="Inter, -apple-system, system-ui, sans-serif" font-size="15" font-weight="800" fill="#0F1B2A" text-anchor="middle">hotspot_latest</text><text x="736.0" y="392" text-anchor="middle" font-family="Inter, sans-serif" font-size="11.5" fill="#3F4D5E">Latest per-cell CH₄ hotspot surface</text><rect x="566" y="452" rx="12" ry="12" width="340" height="84" fill="#FFFFFF" stroke="#E5E7EB" stroke-width="1" filter="url(#card-shadow)"/><path d="M 566 464 A 12 12 0 0 1 578 452 H 894 A 12 12 0 0 1 906 464 V 457 H 566 Z" fill="#6B4FA0"/><text x="736.0" y="476" font-family="Inter, -apple-system, system-ui, sans-serif" font-size="15" font-weight="800" fill="#0F1B2A" text-anchor="middle">plume_leaderboard_latest</text><text x="736.0" y="498" text-anchor="middle" font-family="Inter, sans-serif" font-size="11.5" fill="#3F4D5E">Ranked plumes by max concentration</text><rect x="1122" y="196" rx="12" ry="12" width="306" height="78" fill="#FFFFFF" stroke="#E5E7EB" stroke-width="1" filter="url(#card-shadow)"/><path d="M 1122 208 A 12 12 0 0 1 1134 196 H 1416 A 12 12 0 0 1 1428 208 V 201 H 1122 Z" fill="#0F8E8B"/><text x="1275.0" y="220" font-family="Inter, -apple-system, system-ui, sans-serif" font-size="15" font-weight="800" fill="#0F1B2A" text-anchor="middle">ch4_hotspots</text><text x="1275.0" y="242" text-anchor="middle" font-family="Inter, sans-serif" font-size="11.5" fill="#3F4D5E">H3 · hotspot_latest</text><rect x="1122" y="290" rx="12" ry="12" width="306" height="78" fill="#FFFFFF" stroke="#E5E7EB" stroke-width="1" filter="url(#card-shadow)"/><path d="M 1122 302 A 12 12 0 0 1 1134 290 H 1416 A 12 12 0 0 1 1428 302 V 295 H 1122 Z" fill="#E04E2A"/><text x="1275.0" y="314" font-family="Inter, -apple-system, system-ui, sans-serif" font-size="15" font-weight="800" fill="#0F1B2A" text-anchor="middle">well_density</text><text x="1275.0" y="336" text-anchor="middle" font-family="Inter, sans-serif" font-size="11.5" fill="#3F4D5E">H3 · wells_enriched_latest</text><rect x="1122" y="384" rx="12" ry="12" width="306" height="78" fill="#FFFFFF" stroke="#E5E7EB" stroke-width="1" filter="url(#card-shadow)"/><path d="M 1122 396 A 12 12 0 0 1 1134 384 H 1416 A 12 12 0 0 1 1428 396 V 389 H 1122 Z" fill="#E04E2A"/><text x="1275.0" y="408" font-family="Inter, -apple-system, system-ui, sans-serif" font-size="15" font-weight="800" fill="#0F1B2A" text-anchor="middle">wells</text><text x="1275.0" y="430" text-anchor="middle" font-family="Inter, sans-serif" font-size="11.5" fill="#3F4D5E">point · wells_enriched_latest</text><rect x="1122" y="478" rx="12" ry="12" width="306" height="78" fill="#FFFFFF" stroke="#E5E7EB" stroke-width="1" filter="url(#card-shadow)"/><path d="M 1122 490 A 12 12 0 0 1 1134 478 H 1416 A 12 12 0 0 1 1428 490 V 483 H 1122 Z" fill="#6B4FA0"/><text x="1275.0" y="502" font-family="Inter, -apple-system, system-ui, sans-serif" font-size="15" font-weight="800" fill="#0F1B2A" text-anchor="middle">plumes</text><text x="1275.0" y="524" text-anchor="middle" font-family="Inter, sans-serif" font-size="11.5" fill="#3F4D5E">point · plume_leaderboard_latest</text><line x1="352.0" y1="254.0" x2="558.4" y2="383.2" stroke="#0F8E8B" stroke-width="2.4" stroke-linecap="round"/><polygon points="566.0,388.0 555.7,387.5 561.0,379.0" fill="#0F8E8B"/><line x1="352.0" y1="378.0" x2="558.1" y2="489.7" stroke="#6B4FA0" stroke-width="2.4" stroke-linecap="round"/><polygon points="566.0,494.0 555.7,494.1 560.5,485.3" fill="#6B4FA0"/><line x1="352.0" y1="502.0" x2="560.0" y2="270.7" stroke="#E04E2A" stroke-width="2.4" stroke-linecap="round"/><polygon points="566.0,264.0 563.7,274.0 556.3,267.3" fill="#E04E2A"/><line x1="906.0" y1="388.0" x2="1114.7" y2="240.2" stroke="#0F8E8B" stroke-width="2.4" stroke-linecap="round"/><polygon points="1122.0,235.0 1117.5,244.3 1111.8,236.1" fill="#0F8E8B"/><line x1="906.0" y1="264.0" x2="1113.4" y2="326.4" stroke="#E04E2A" stroke-width="2.4" stroke-linecap="round"/><polygon points="1122.0,329.0 1111.9,331.2 1114.8,321.6" fill="#E04E2A"/><line x1="906.0" y1="264.0" x2="1114.8" y2="417.7" stroke="#E04E2A" stroke-width="2.4" stroke-linecap="round"/><polygon points="1122.0,423.0 1111.8,421.7 1117.7,413.6" fill="#E04E2A"/><line x1="906.0" y1="494.0" x2="1113.1" y2="516.0" stroke="#6B4FA0" stroke-width="2.4" stroke-linecap="round"/><polygon points="1122.0,517.0 1112.5,521.0 1113.6,511.1" fill="#6B4FA0"/><text x="736.0" y="176" font-family="Inter, -apple-system, system-ui, sans-serif" font-size="11" font-weight="600" fill="#E04E2A" text-anchor="middle">wells_enriched_latest feeds both the density hexes and the well points</text>
<text x="36" y="650" font-family="Inter, -apple-system, system-ui, sans-serif" font-size="10" font-weight="700" fill="#7A8794" text-anchor="start" letter-spacing="1.6">KEY FUNCTIONS</text><rect x="166" y="640" rx="12" ry="12" width="171" height="24" fill="#D5ECEC"/><text x="251.5" y="656.0" text-anchor="middle" font-family="ui-monospace, SFMono-Regular, Menlo, Consolas, monospace" font-size="12" font-weight="700" fill="#0F8E8B">wells_enriched_latest</text><rect x="345" y="640" rx="12" ry="12" width="122" height="24" fill="#D5ECEC"/><text x="406.0" y="656.0" text-anchor="middle" font-family="ui-monospace, SFMono-Regular, Menlo, Consolas, monospace" font-size="12" font-weight="700" fill="#0F8E8B">hotspot_latest</text><rect x="475" y="640" rx="12" ry="12" width="192" height="24" fill="#D5ECEC"/><text x="571.0" y="656.0" text-anchor="middle" font-family="ui-monospace, SFMono-Regular, Menlo, Consolas, monospace" font-size="12" font-weight="700" fill="#0F8E8B">plume_leaderboard_latest</text><rect x="675" y="640" rx="12" ry="12" width="87" height="24" fill="#D5ECEC"/><text x="718.5" y="656.0" text-anchor="middle" font-family="ui-monospace, SFMono-Regular, Menlo, Consolas, monospace" font-size="12" font-weight="700" fill="#0F8E8B">SRID 4326</text><text x="1444" y="650" font-family="Inter, -apple-system, system-ui, sans-serif" font-size="11" font-weight="400" fill="#7A8794" text-anchor="end">databrickslabs/geobrix  ·  Genie Map  ·  geospatial_docs.vapor_eyes_lf</text>
</svg>