<svg xmlns="http://www.w3.org/2000/svg" viewBox="0 0 1480 720" width="1480" height="720" style="font-family: Inter, -apple-system, system-ui, sans-serif;">
<defs>
  <filter id="card-shadow" x="-5%" y="-5%" width="110%" height="115%">
    <feDropShadow dx="0" dy="2" stdDeviation="6"
                  flood-color="#0F1B2A" flood-opacity="0.08"/>
  </filter>
  <linearGradient id="bg" x1="0" y1="0" x2="0" y2="1">
    <stop offset="0" stop-color="#FAFBFC"/>
    <stop offset="1" stop-color="#F1F4F8"/>
  </linearGradient>
</defs>

<rect x="0" y="0" width="1480" height="720" fill="url(#bg)"/>
<rect x="36" y="40" rx="14" ry="14" width="60" height="60" fill="#1F6FB5"/><text x="66.0" y="80.0" text-anchor="middle" font-family="Inter, sans-serif" font-size="22" font-weight="900" fill="#FFFFFF">01A</text><text x="114" y="68" font-family="Inter, -apple-system, system-ui, sans-serif" font-size="28" font-weight="800" fill="#0F1B2A" text-anchor="start">Sparse SfM: telemetry to orthomosaic</text><text x="114" y="94" font-family="Inter, -apple-system, system-ui, sans-serif" font-size="14" font-weight="400" fill="#3F4D5E" text-anchor="start">EXIF/GPS extraction → distributed matching → incremental mapping → sparse orthomosaic</text><rect x="114" y="108" rx="11" ry="11" width="158" height="22" fill="#EAF1F8" stroke="#1F6FB5" stroke-width="1"/><text x="193.0" y="123" text-anchor="middle" font-family="ui-monospace, SFMono-Regular, Menlo, Consolas, monospace" font-size="11" font-weight="700" fill="#1F6FB5">CPU · Serverless env5</text><rect x="1209" y="48" rx="13" ry="13" width="235" height="26" fill="#0F1B2A"/><text x="1326.5" y="66" text-anchor="middle" font-family="Inter, sans-serif" font-size="12" font-weight="700" fill="#FFFFFF">Orthomosaic Series  ·  01a (CPU)</text>
<rect x="36" y="160" rx="14" ry="14" width="310" height="380" fill="#FFFFFF" stroke="#E5E7EB" stroke-width="1" filter="url(#card-shadow)"/><path d="M 36 174 A 14 14 0 0 1 50 160 H 332 A 14 14 0 0 1 346 174 V 165 H 36 Z" fill="#1F6FB5"/><rect x="131.0" y="247.0" rx="10.0" ry="10.0" width="120.0" height="78.0" fill="#E3EEF8" stroke="#1F6FB5" stroke-width="2.2"/><rect x="145.0" y="235.0" width="34.0" height="14.0" rx="4.0" fill="#1F6FB5"/><circle cx="191.0" cy="286.0" r="22.0" fill="#FFFFFF" stroke="#1F6FB5" stroke-width="2.2"/><circle cx="191.0" cy="286.0" r="10.0" fill="#1F6FB5" fill-opacity="0.55"/><circle cx="245.0" cy="243.0" r="13.0" fill="#1F6FB5"/><circle cx="245.0" cy="243.0" r="5.0" fill="#FFFFFF"/><text x="191.0" y="396" font-family="Inter, -apple-system, system-ui, sans-serif" font-size="16" font-weight="800" fill="#0F1B2A" text-anchor="middle">EXIF + GPS QC</text><rect x="151.0" y="410" rx="11" ry="11" width="80" height="22" fill="#E3EEF8"/><text x="191.0" y="425" text-anchor="middle" font-family="ui-monospace, SFMono-Regular, Menlo, Consolas, monospace" font-size="12" font-weight="700" fill="#1F6FB5">exif_gbx</text><text x="191.0" y="458" text-anchor="middle" font-family="Inter, sans-serif" font-size="12" fill="#3F4D5E">exif_gbx reads GPS, camera model, and</text><text x="191.0" y="474" text-anchor="middle" font-family="Inter, sans-serif" font-size="12" fill="#3F4D5E">focal length per image; gsd_from_telemetry</text><text x="191.0" y="490" text-anchor="middle" font-family="Inter, sans-serif" font-size="12" fill="#3F4D5E">confirms the target GSD; qc mode drops</text>
<line x1="354" y1="320.0" x2="384" y2="320.0" stroke="#1F6FB5" stroke-width="2.5" stroke-linecap="round"/><polygon points="394,320.0 384,313.3333333333333 384,326.6666666666667" fill="#1F6FB5"/>
<rect x="402" y="160" rx="14" ry="14" width="310" height="380" fill="#FFFFFF" stroke="#E5E7EB" stroke-width="1" filter="url(#card-shadow)"/><path d="M 402 174 A 14 14 0 0 1 416 160 H 698 A 14 14 0 0 1 712 174 V 165 H 402 Z" fill="#1F6FB5"/><rect x="485.0" y="246.0" rx="8.0" ry="8.0" width="92.0" height="68.0" fill="#E3EEF8" fill-opacity="0.55" stroke="#1F6FB5" stroke-width="1.8"/><rect x="537.0" y="246.0" rx="8.0" ry="8.0" width="92.0" height="68.0" fill="#E3EEF8" fill-opacity="1.0" stroke="#1F6FB5" stroke-width="1.8"/><line x1="505.0" y1="266.0" x2="559.0" y2="270.0" stroke="#1F6FB5" stroke-width="1.2" stroke-opacity="0.55"/><circle cx="505.0" cy="266.0" r="3.0" fill="#1F6FB5"/><circle cx="559.0" cy="270.0" r="3.0" fill="#1F6FB5"/><line x1="517.0" y1="290.0" x2="573.0" y2="294.0" stroke="#1F6FB5" stroke-width="1.2" stroke-opacity="0.55"/><circle cx="517.0" cy="290.0" r="3.0" fill="#1F6FB5"/><circle cx="573.0" cy="294.0" r="3.0" fill="#1F6FB5"/><line x1="539.0" y1="262.0" x2="593.0" y2="264.0" stroke="#1F6FB5" stroke-width="1.2" stroke-opacity="0.55"/><circle cx="539.0" cy="262.0" r="3.0" fill="#1F6FB5"/><circle cx="593.0" cy="264.0" r="3.0" fill="#1F6FB5"/><line x1="527.0" y1="300.0" x2="581.0" y2="298.0" stroke="#1F6FB5" stroke-width="1.2" stroke-opacity="0.55"/><circle cx="527.0" cy="300.0" r="3.0" fill="#1F6FB5"/><circle cx="581.0" cy="298.0" r="3.0" fill="#1F6FB5"/><text x="557.0" y="396" font-family="Inter, -apple-system, system-ui, sans-serif" font-size="16" font-weight="800" fill="#0F1B2A" text-anchor="middle">Distributed matching</text><rect x="499.5" y="410" rx="11" ry="11" width="115" height="22" fill="#E3EEF8"/><text x="557.0" y="425" text-anchor="middle" font-family="ui-monospace, SFMono-Regular, Menlo, Consolas, monospace" font-size="12" font-weight="700" fill="#1F6FB5">run_spark_sfm</text><text x="557.0" y="458" text-anchor="middle" font-family="Inter, sans-serif" font-size="12" fill="#3F4D5E">run_spark_sfm fans SIFT feature extraction</text><text x="557.0" y="474" text-anchor="middle" font-family="Inter, sans-serif" font-size="12" fill="#3F4D5E">out one image per Spark task, then matches</text><text x="557.0" y="490" text-anchor="middle" font-family="Inter, sans-serif" font-size="12" fill="#3F4D5E">candidate pairs with pycolmap's CPU</text>
<line x1="720" y1="320.0" x2="750" y2="320.0" stroke="#1F6FB5" stroke-width="2.5" stroke-linecap="round"/><polygon points="760,320.0 750,313.3333333333333 750,326.6666666666667" fill="#1F6FB5"/>
<rect x="768" y="160" rx="14" ry="14" width="310" height="380" fill="#FFFFFF" stroke="#E5E7EB" stroke-width="1" filter="url(#card-shadow)"/><path d="M 768 174 A 14 14 0 0 1 782 160 H 1064 A 14 14 0 0 1 1078 174 V 165 H 768 Z" fill="#1F6FB5"/><circle cx="963.0" cy="280.0" r="2.6" fill="#1F6FB5" fill-opacity="0.85"/><circle cx="951.6" cy="315.8" r="2.6" fill="#1F6FB5" fill-opacity="0.85"/><circle cx="913.3" cy="322.4" r="2.6" fill="#1F6FB5" fill-opacity="0.85"/><circle cx="878.6" cy="301.4" r="2.6" fill="#1F6FB5" fill-opacity="0.85"/><circle cx="885.5" cy="261.9" r="2.6" fill="#1F6FB5" fill-opacity="0.85"/><circle cx="912.4" cy="233.5" r="2.6" fill="#1F6FB5" fill-opacity="0.85"/><circle cx="950.8" cy="245.1" r="2.6" fill="#1F6FB5" fill-opacity="0.85"/><polygon points="923.0,222.0 918.7,232.1 927.3,232.1" fill="#E3EEF8" stroke="#1F6FB5" stroke-width="1.6"/><polygon points="973.2,251.0 962.3,252.4 966.6,259.8" fill="#E3EEF8" stroke="#1F6FB5" stroke-width="1.6"/><polygon points="973.2,309.0 966.6,300.2 962.3,307.6" fill="#E3EEF8" stroke="#1F6FB5" stroke-width="1.6"/><polygon points="923.0,338.0 927.3,327.9 918.7,327.9" fill="#E3EEF8" stroke="#1F6FB5" stroke-width="1.6"/><polygon points="872.8,309.0 883.7,307.6 879.4,300.2" fill="#E3EEF8" stroke="#1F6FB5" stroke-width="1.6"/><polygon points="872.8,251.0 879.4,259.8 883.7,252.4" fill="#E3EEF8" stroke="#1F6FB5" stroke-width="1.6"/><circle cx="923.0" cy="280.0" r="4.0" fill="#1F6FB5"/><text x="923.0" y="396" font-family="Inter, -apple-system, system-ui, sans-serif" font-size="16" font-weight="800" fill="#0F1B2A" text-anchor="middle">Incremental mapping</text><rect x="883.0" y="410" rx="11" ry="11" width="80" height="22" fill="#E3EEF8"/><text x="923.0" y="425" text-anchor="middle" font-family="ui-monospace, SFMono-Regular, Menlo, Consolas, monospace" font-size="12" font-weight="700" fill="#1F6FB5">pycolmap</text><text x="923.0" y="458" text-anchor="middle" font-family="Inter, sans-serif" font-size="12" fill="#3F4D5E">pycolmap.incremental_mapping recovers</text><text x="923.0" y="474" text-anchor="middle" font-family="Inter, sans-serif" font-size="12" fill="#3F4D5E">camera poses and a sparse 3-D point cloud</text><text x="923.0" y="490" text-anchor="middle" font-family="Inter, sans-serif" font-size="12" fill="#3F4D5E">from the matched pairs, on the driver</text>
<line x1="1086" y1="320.0" x2="1116" y2="320.0" stroke="#1F6FB5" stroke-width="2.5" stroke-linecap="round"/><polygon points="1126,320.0 1116,313.3333333333333 1116,326.6666666666667" fill="#1F6FB5"/>
<rect x="1134" y="160" rx="14" ry="14" width="310" height="380" fill="#FFFFFF" stroke="#E5E7EB" stroke-width="1" filter="url(#card-shadow)"/><path d="M 1134 174 A 14 14 0 0 1 1148 160 H 1430 A 14 14 0 0 1 1444 174 V 165 H 1134 Z" fill="#1F6FB5"/><rect x="1224.0" y="242.0" rx="6.0" ry="6.0" width="78.0" height="56.0" fill="#E3EEF8" fill-opacity="0.45" stroke="#1F6FB5" stroke-width="1.4"/><rect x="1250.0" y="236.0" rx="6.0" ry="6.0" width="78.0" height="56.0" fill="#E3EEF8" fill-opacity="0.45" stroke="#1F6FB5" stroke-width="1.4"/><rect x="1276.0" y="244.0" rx="6.0" ry="6.0" width="78.0" height="56.0" fill="#E3EEF8" fill-opacity="0.45" stroke="#1F6FB5" stroke-width="1.4"/><rect x="1238.0" y="266.0" rx="6.0" ry="6.0" width="78.0" height="56.0" fill="#E3EEF8" fill-opacity="0.45" stroke="#1F6FB5" stroke-width="1.4"/><rect x="1264.0" y="268.0" rx="6.0" ry="6.0" width="78.0" height="56.0" fill="#E3EEF8" fill-opacity="0.45" stroke="#1F6FB5" stroke-width="1.4"/><rect x="1211.0" y="240.8" rx="8.0" width="156.0" height="78.4" fill="none" stroke="#1F6FB5" stroke-width="2.2" stroke-dasharray="6 4"/><text x="1289.0" y="396" font-family="Inter, -apple-system, system-ui, sans-serif" font-size="16" font-weight="800" fill="#0F1B2A" text-anchor="middle">Sparse orthomosaic</text><rect x="1200.0" y="410" rx="11" ry="11" width="178" height="22" fill="#E3EEF8"/><text x="1289.0" y="425" text-anchor="middle" font-family="ui-monospace, SFMono-Regular, Menlo, Consolas, monospace" font-size="12" font-weight="700" fill="#1F6FB5">accumulate_orthomosaic</text><text x="1289.0" y="458" text-anchor="middle" font-family="Inter, sans-serif" font-size="12" fill="#3F4D5E">accumulate_orthomosaic places each GPS</text><text x="1289.0" y="474" text-anchor="middle" font-family="Inter, sans-serif" font-size="12" fill="#3F4D5E">cluster in one shared ENU frame</text><text x="1289.0" y="490" text-anchor="middle" font-family="Inter, sans-serif" font-size="12" fill="#3F4D5E">(place_clusters_shared_enu) and blends</text>
<text x="36" y="650" font-family="Inter, -apple-system, system-ui, sans-serif" font-size="10" font-weight="700" fill="#7A8794" text-anchor="start" letter-spacing="1.6">KEY FUNCTIONS</text><rect x="166" y="640" rx="12" ry="12" width="80" height="24" fill="#E3EEF8"/><text x="206.0" y="656" text-anchor="middle" font-family="ui-monospace, SFMono-Regular, Menlo, Consolas, monospace" font-size="12" font-weight="700" fill="#1F6FB5">exif_gbx</text><rect x="254" y="640" rx="12" ry="12" width="150" height="24" fill="#E3EEF8"/><text x="329.0" y="656" text-anchor="middle" font-family="ui-monospace, SFMono-Regular, Menlo, Consolas, monospace" font-size="12" font-weight="700" fill="#1F6FB5">gsd_from_telemetry</text><rect x="412" y="640" rx="12" ry="12" width="115" height="24" fill="#E3EEF8"/><text x="469.5" y="656" text-anchor="middle" font-family="ui-monospace, SFMono-Regular, Menlo, Consolas, monospace" font-size="12" font-weight="700" fill="#1F6FB5">run_spark_sfm</text><rect x="535" y="640" rx="12" ry="12" width="80" height="24" fill="#E3EEF8"/><text x="575.0" y="656" text-anchor="middle" font-family="ui-monospace, SFMono-Regular, Menlo, Consolas, monospace" font-size="12" font-weight="700" fill="#1F6FB5">pycolmap</text><rect x="623" y="640" rx="12" ry="12" width="178" height="24" fill="#E3EEF8"/><text x="712.0" y="656" text-anchor="middle" font-family="ui-monospace, SFMono-Regular, Menlo, Consolas, monospace" font-size="12" font-weight="700" fill="#1F6FB5">accumulate_orthomosaic</text><rect x="809" y="640" rx="12" ry="12" width="199" height="24" fill="#E3EEF8"/><text x="908.5" y="656" text-anchor="middle" font-family="ui-monospace, SFMono-Regular, Menlo, Consolas, monospace" font-size="12" font-weight="700" fill="#1F6FB5">place_clusters_shared_enu</text><text x="1444" y="650" font-family="Inter, -apple-system, system-ui, sans-serif" font-size="11" font-weight="400" fill="#7A8794" text-anchor="end">databrickslabs/geobrix  ·  pycolmap  ·  GeoSAM</text>
</svg>